<svg width="21" height="14" viewBox="0 0 21 14" fill="none" xmlns="http://www.w3.org/2000/svg">
<path d="M1.92538 9.26562C2.81259 4.84134 6.52144 1.69773 10.6934 1.69773C14.8641 1.69773 18.5729 4.84134 19.4614 9.26562C19.4966 9.44118 19.5975 9.59504 19.7419 9.69333C19.8864 9.79163 20.0625 9.82633 20.2315 9.78978C20.4006 9.75324 20.5488 9.64845 20.6434 9.49846C20.7381 9.34848 20.7715 9.16559 20.7363 8.99003C19.7255 3.95783 15.4976 0.346802 10.6934 0.346802C5.8892 0.346802 1.6613 3.95783 0.650508 8.99003C0.615316 9.16559 0.648724 9.34848 0.743382 9.49846C0.83804 9.64845 0.986195 9.75324 1.15525 9.78978C1.32431 9.82633 1.50043 9.79163 1.64485 9.69333C1.78928 9.59504 1.89019 9.44118 1.92538 9.26562ZM10.6804 4.39958C11.888 4.39958 13.0461 4.89774 13.8999 5.78445C14.7538 6.67117 15.2335 7.87382 15.2335 9.12783C15.2335 10.3818 14.7538 11.5845 13.8999 12.4712C13.0461 13.3579 11.888 13.8561 10.6804 13.8561C9.47283 13.8561 8.31472 13.3579 7.46084 12.4712C6.60697 11.5845 6.12726 10.3818 6.12726 9.12783C6.12726 7.87382 6.60697 6.67117 7.46084 5.78445C8.31472 4.89774 9.47283 4.39958 10.6804 4.39958Z" fill="#949BA5"/>
</svg>
